<?xml version="1.0" encoding="utf-8"?>
<!-- Generator: Adobe Illustrator 15.0.2, SVG Export Plug-In  -->
<!DOCTYPE svg PUBLIC "-//W3C//DTD SVG 1.1//EN" "http://www.w3.org/Graphics/SVG/1.1/DTD/svg11.dtd" [
	<!ENTITY ns_flows "http://ns.adobe.com/Flows/1.0/">
]>
<svg version="1.1"
	 xmlns="http://www.w3.org/2000/svg" xmlns:xlink="http://www.w3.org/1999/xlink" xmlns:a="http://ns.adobe.com/AdobeSVGViewerExtensions/3.0/"
	 x="0px" y="0px" width="36px" height="36px" viewBox="0.024 0.005 36 36" enable-background="new 0.024 0.005 36 36"
	 xml:space="preserve">
<defs>
</defs>
<path fill="#2A9103" d="M34.526,8.056c-1.137-4.548-9.432-7.442-9.432-7.442s-7.954-1.964-17.5,1.137
	C-1.95,4.852,0.209,20.15,0.209,20.15s0.455,5.994,2.272,11.06c1.819,5.064,5.114,4.755,5.114,4.755
	c2.159-0.207,3.068-2.274,3.068-2.274l-0.114-3.308c0.636-1.496,1.295-2.019,1.895-2.047c0,0,7.753,0.522,10.865,0.233
	c1.127-0.104,2.013,1.606,2.013,1.606l0.228,4.549c3.636,2.997,5.909-0.312,5.909-0.312s2.271-2.789,3.863-9.716
	C36.913,17.772,35.662,12.604,34.526,8.056 M6.502,32.08c-2.876-3.202-3.013-6.518-3.013-6.518c0.521-1.486,1.473-0.208,1.473-0.208
	S9.38,35.28,6.502,32.08 M28.261,32.08c-2.877,3.2,1.541-6.726,1.541-6.726s0.951-1.278,1.474,0.208
	C31.275,25.562,31.139,28.877,28.261,32.08"/>
</svg>
