<svg width="36" height="36" xmlns="http://www.w3.org/2000/svg" xmlns:svg="http://www.w3.org/2000/svg">
 <g class="layer">
  <title>Layer 1</title>
  <path transform="rotate(-90 18.69271850585938,17.92531394958496) " id="svg_3" fill="#c2886c" d="m24.91287,29.56664c1.86314,-1.31072 3.29591,-3.19228 4.04041,-5.38844l-0.00711,-12.52595c-0.7464,-2.18743 -2.17591,-4.06164 -4.03332,-5.36826l-12.44026,0c-1.85743,1.30662 -3.2869,3.18084 -4.03332,5.36826l-0.00711,12.52595c0.74448,2.19616 2.17727,4.07771 4.04041,5.38844l12.44026,0l0.00004,0zm0,0"/>
  <path transform="rotate(-90 18.692724227905277,12.888179779052736) " id="svg_9" fill="#a66856" d="m19.78258,1.24685l-6.22012,0l0,23.28266l6.22012,0c1.86314,-1.31043 3.29591,-3.19228 4.04041,-5.38817l-0.00711,-12.52622c-0.7464,-2.18743 -2.17591,-4.06164 -4.03332,-5.36826l0.00002,0l0,-0.00001zm0,0"/>
  <path transform="rotate(-90 18.69273376464844,18.01845359802246) " id="svg_10" fill="#8f5040" d="m19.7407,18.01845c0,0.5782 -0.46912,1.04683 -1.04797,1.04683s-1.04797,-0.46861 -1.04797,-1.04683s0.46912,-1.04683 1.04797,-1.04683s1.04797,0.46861 1.04797,1.04683zm0,0"/>
  <path transform="rotate(-90 18.682909011840824,10.857315063476564) " id="svg_11" fill="#7d4436" d="m15.01501,10.85732c0,3.46325 2.82079,6.28097 6.28781,6.28097c0.16128,0 0.3212,-0.00627 0.47951,-0.01827c0.36842,-1.08717 0.56848,-2.25123 0.56848,-3.46135l0,-5.58309c0,-1.21748 -0.20278,-2.38863 -0.57556,-3.48152c-0.15611,-0.01172 -0.31358,-0.01772 -0.47241,-0.01772c-3.46702,0 -6.28781,2.81772 -6.28781,6.28097l0,0l-0.00002,0.00002l0.00001,0l-0.00001,-0.00001zm0,0"/>
  <path transform="rotate(-90 28.637594223022464,18.018444061279297) " id="svg_12" fill="#8f5040" d="m28.63759,21.68233c2.31318,0 4.45878,-0.72869 6.22012,-1.96743c-0.44729,-3.02844 -3.06614,-5.36035 -6.22012,-5.36035s-5.77282,2.33193 -6.22012,5.36035c1.76135,1.23874 3.90696,1.96743 6.22012,1.96743zm0,0"/>
  <path transform="rotate(-90 8.747863769531255,18.0184440612793) " id="svg_13" fill="#8f5040" d="m8.74786,14.35455c2.31318,0 4.45878,0.72869 6.22012,1.96743c-0.44729,3.02844 -3.06614,5.36035 -6.22012,5.36035s-5.77282,-2.33193 -6.22012,-5.36035c1.76135,-1.23874 3.90696,-1.96743 6.22012,-1.96743zm0,0"/>
  <path transform="rotate(-90 28.63759422302246,14.908384323120115) " id="svg_14" fill="#7d4436" d="m31.74765,16.60483c-0.44729,-3.02844 -3.06614,-5.36035 -6.22012,-5.36035l0,7.3278c2.31318,0 4.45878,-0.72869 6.22012,-1.96743l0,-0.00001l0,-0.00001zm0,0"/>
  <path transform="rotate(-90 8.747863769531252,14.908384323120117) " id="svg_15" fill="#7d4436" d="m11.85792,13.21191c-1.76135,-1.23874 -3.90696,-1.96743 -6.22012,-1.96743l0,7.3278c3.15401,0 5.77282,-2.33193 6.22012,-5.36035l0,-0.00001l0,-0.00001zm0,0"/>
  <path transform="rotate(-90 18.682924270629886,25.179553985595703) " id="svg_16" fill="#8f5040" d="m16.06299,18.89858c-0.1591,0 -0.31658,0.006 -0.47241,0.01772c-0.37307,1.09289 -0.57556,2.26404 -0.57556,3.48152l0,5.58309c0,1.21011 0.20003,2.37417 0.56848,3.46162c0.15828,0.01199 0.3182,0.018 0.47951,0.018c3.46702,0 6.28781,-2.81772 6.28781,-6.28097s-2.82079,-6.28097 -6.28781,-6.28097l0,0l-0.00002,-0.00002l0.00001,0l-0.00001,0.00001zm0,0"/>
  <path transform="rotate(-90 18.69273376464844,17.494470596313477) " id="svg_17" fill="#7d4436" d="m19.21672,17.49447c0,-0.5782 -0.46912,-1.04683 -1.04797,-1.04683l0,2.09366c0.57883,0 1.04797,-0.46861 1.04797,-1.04683l0,0zm0,0"/>
 </g>
</svg>
