<svg width="36" height="36" xmlns="http://www.w3.org/2000/svg" xmlns:svg="http://www.w3.org/2000/svg">
 <g class="layer">
  <title>Layer 1</title>
  <g transform="rotate(90 17.994836807250977,18.018453598022464) " id="svg_18">
   <path id="svg_1" fill="#80e981" d="m9.26175,16.2961c0,0.45635 -0.29611,0.86008 -0.7314,0.99776c-0.80453,0.25462 -1.62762,0.37893 -2.44227,0.37893c-2.09595,0 -4.13757,-0.82138 -5.67158,-2.354c-0.40936,-0.40863 -0.40936,-1.07163 0,-1.48028l5.43415,-5.42851c1.63281,-1.63104 4.22626,-1.77987 6.03265,-0.34594c0.23688,0.18783 0.3807,0.46888 0.3949,0.77067l-3.01646,7.46138l0,0l0,-0.00001zm0,0"/>
   <path id="svg_2" fill="#80e981" d="m12.73807,28.46002c0.34523,0.26172 0.49369,0.70853 0.37335,1.12453c-0.51471,1.7807 -1.61425,3.38392 -3.09615,4.51389c-1.53212,1.16841 -3.36278,1.78589 -5.2947,1.78589c-0.57883,0 -1.04797,-0.46861 -1.04797,-1.04683l0,-8.72355c0,-1.23439 0.46231,-2.41261 1.30151,-3.31769c0.83427,-0.89961 1.96547,-1.45003 3.18567,-1.5498c0.27727,-0.02289 0.55238,0.06544 0.76441,0.24563l3.81389,6.96795l0,0l0,-0.00002zm0,0"/>
   <path id="svg_3" fill="#c2886c" d="m24.30812,30.35767c1.86314,-1.31072 3.29591,-3.19228 4.04041,-5.38844l-0.00711,-12.52595c-0.7464,-2.18743 -2.17591,-4.06164 -4.03332,-5.36826l-12.44026,0c-1.85743,1.30662 -3.2869,3.18084 -4.03332,5.36826l-0.00711,12.52595c0.74448,2.19616 2.17727,4.07771 4.04041,5.38844l12.44026,0l0.00004,0zm0,0"/>
   <path id="svg_4" fill="#80e981" d="m13.24405,7.9891c-0.3043,-0.19164 -0.48904,-0.52613 -0.48904,-0.88543l0,-1.71691c0,-2.88614 2.35055,-5.23416 5.23985,-5.23416s5.23985,2.34799 5.23985,5.23416l0,1.71664c0,0.35957 -0.18477,0.69406 -0.48934,0.88572c-0.16975,0.10686 -0.36406,0.16111 -0.55865,0.16111l-8.94265,-0.16111l-0.00002,-0.00002zm0,0"/>
   <g id="svg_5" fill="#5bcb80">
    <path id="svg_6" d="m22.1867,8.15021c0.19459,0 0.38861,-0.05396 0.55865,-0.16111c0.30457,-0.19164 0.48934,-0.52613 0.48934,-0.88572l0,-1.71664c0,-2.88614 -2.35055,-5.23416 -5.23985,-5.23416l0,7.92208l4.19186,0.07552l0,0.00002zm0,0"/>
    <path id="svg_7" d="m24.03239,9.63867c-0.21805,-0.20909 -0.33514,-0.50216 -0.32093,-0.80393s0.15802,-0.58284 0.3949,-0.77067c1.8061,-1.43366 4.39982,-1.2851 6.03265,0.34594l5.43415,5.42851c0.40936,0.40863 0.40936,1.07163 0,1.48028c-1.53402,1.53235 -3.57564,2.354 -5.67185,2.354c-0.81463,0 -1.63745,-0.12429 -2.44199,-0.37893c-0.43557,-0.13767 -0.7314,-0.54141 -0.7314,-0.99776l-2.69551,-6.65743l0,0l-0.00002,-0.00002l0,0.00001zm0,0"/>
    <path id="svg_8" d="m27.06549,21.49209c0.21204,-0.18019 0.48686,-0.26852 0.76441,-0.24563c1.22016,0.09978 2.35139,0.65019 3.18567,1.5498c0.8392,0.90508 1.30151,2.0833 1.30151,3.31769l0,8.72355c0,0.5782 -0.46912,1.04683 -1.04797,1.04683c-1.93192,0 -3.76286,-0.61748 -5.2947,-1.78589c-1.4819,-1.12997 -2.58145,-2.73319 -3.09615,-4.51389c-0.12035,-0.41573 0.02811,-0.86281 0.37335,-1.12426l3.81389,-6.96823l0,0l0,0.00002zm0,0"/>
   </g>
   <path id="svg_9" fill="#a66856" d="m24.21496,7.07502l-6.22012,0l0,23.28266l6.22012,0c1.86314,-1.31043 3.29591,-3.19228 4.04041,-5.38817l-0.00711,-12.52622c-0.7464,-2.18743 -2.17591,-4.06164 -4.03332,-5.36826l0.00002,0l0,-0.00001zm0,0"/>
   <path id="svg_10" fill="#8f5040" d="m19.0428,18.71636c0,0.5782 -0.46912,1.04683 -1.04797,1.04683s-1.04797,-0.46861 -1.04797,-1.04683s0.46912,-1.04683 1.04797,-1.04683s1.04797,0.46861 1.04797,1.04683zm0,0"/>
   <path id="svg_11" fill="#7d4436" d="m21.48807,18.70654c0,3.46325 2.82079,6.28097 6.28781,6.28097c0.16128,0 0.3212,-0.00627 0.47951,-0.01827c0.36842,-1.08717 0.56848,-2.25123 0.56848,-3.46135l0,-5.58309c0,-1.21748 -0.20278,-2.38863 -0.57556,-3.48152c-0.15611,-0.01172 -0.31358,-0.01772 -0.47241,-0.01772c-3.46702,0 -6.28781,2.81772 -6.28781,6.28097l0,0l-0.00002,0.00002l0.00001,0zm0,0"/>
   <path id="svg_12" fill="#8f5040" d="m17.99484,32.32511c2.31318,0 4.45878,-0.72869 6.22012,-1.96743c-0.44729,-3.02844 -3.06614,-5.36035 -6.22012,-5.36035s-5.77282,2.33193 -6.22012,5.36035c1.76135,1.23874 3.90696,1.96743 6.22012,1.96743zm0,0"/>
   <path id="svg_13" fill="#8f5040" d="m17.99484,5.1076c2.31318,0 4.45878,0.72869 6.22012,1.96743c-0.44729,3.02844 -3.06614,5.36035 -6.22012,5.36035s-5.77282,-2.33193 -6.22012,-5.36035c1.76135,-1.23874 3.90696,-1.96743 6.22012,-1.96743zm0,0"/>
   <path id="svg_14" fill="#7d4436" d="m24.21496,30.35767c-0.44729,-3.02844 -3.06614,-5.36035 -6.22012,-5.36035l0,7.3278c2.31318,0 4.45878,-0.72869 6.22012,-1.96743l0,-0.00001zm0,0"/>
   <path id="svg_15" fill="#7d4436" d="m24.21496,7.07502c-1.76135,-1.23874 -3.90696,-1.96743 -6.22012,-1.96743l0,7.3278c3.15401,0 5.77282,-2.33193 6.22012,-5.36035l0,-0.00001zm0,0"/>
   <path id="svg_16" fill="#8f5040" d="m8.2138,12.42558c-0.1591,0 -0.31658,0.006 -0.47241,0.01772c-0.37307,1.09289 -0.57556,2.26404 -0.57556,3.48152l0,5.58309c0,1.21011 0.20003,2.37417 0.56848,3.46162c0.15828,0.01199 0.3182,0.018 0.47951,0.018c3.46702,0 6.28781,-2.81772 6.28781,-6.28097s-2.82079,-6.28097 -6.28781,-6.28097l0,0l-0.00002,-0.00002l0.00001,0zm0,0"/>
   <path id="svg_17" fill="#7d4436" d="m19.0428,18.71636c0,-0.5782 -0.46912,-1.04683 -1.04797,-1.04683l0,2.09366c0.57883,0 1.04797,-0.46861 1.04797,-1.04683l0,0zm0,0"/>
  </g>
 </g>
</svg>
